<svg width="492" height="417" viewBox="0 0 492 417" fill="none" xmlns="http://www.w3.org/2000/svg">
<g clip-path="url(#clip0_228_6)">
<path d="M474.291 341.218H17.7089C7.9444 341.218 0 333.269 0 323.497V268.507H492V323.497C492 333.269 484.056 341.218 474.291 341.218Z" fill="#E6E6E6"/>
<path d="M305.092 332.02H188.658V415.243H305.092V332.02Z" fill="#E6E6E6"/>
<path d="M312.096 404.731H181.655V415.243H312.096V404.731Z" fill="#E6E6E6"/>
<path d="M491.562 291.722H0V12.1611C0 5.45558 5.45187 0 12.1528 0H479.41C486.11 0 491.562 5.45558 491.562 12.1611V291.722Z" fill="#3F3D56"/>
<path d="M479.743 12.7026H11.3809V276.391H479.743V12.7026Z" fill="white"/>
<path d="M102.085 169.868C105.67 166.904 110.104 166.352 111.988 168.635C113.873 170.919 112.495 175.171 108.908 178.136C107.492 179.34 105.808 180.187 103.997 180.606L88.65 192.973L83.004 185.642L98.7331 174.229C99.4862 172.528 100.636 171.033 102.085 169.868Z" fill="#FFB6B6"/>
<path d="M13.3796 197.771C13.3718 197.224 13.3769 192.453 16.9064 189.438C20.9608 185.974 26.6817 187.376 28.6883 187.868C33.3235 189.004 33.7037 190.994 38.0566 193.038C46.2005 196.863 35.9965 194.905 40.8424 193.679C42.5198 193.254 66.6512 191.58 72.658 187.88C84.3404 180.685 92.3004 176.322 92.3004 176.322L97.504 186.736C97.504 186.736 89.9795 197.206 79.3896 204.962C68.5266 212.918 63.0952 216.896 54.8408 218.433C54.13 218.565 36.6479 221.552 22.5675 211.025C19.3558 208.624 13.4713 204.225 13.3796 197.771Z" fill="#5BB55B"/>
<path d="M29.5216 171.285C39.533 171.285 47.6488 163.164 47.6488 153.145C47.6488 143.127 39.533 135.006 29.5216 135.006C19.5101 135.006 11.3943 143.127 11.3943 153.145C11.3943 163.164 19.5101 171.285 29.5216 171.285Z" fill="#FFB6B6"/>
<path d="M171.488 275.014L152.819 255.892L143.182 265.951L157.091 284.286L170.887 285.865L171.488 275.014Z" fill="#FFB6B6"/>
<path d="M64.8891 239.155C65.9811 239.246 69.451 239.942 72.7676 238.116C75.0311 236.87 76.192 235.017 76.5841 234.428C81.4482 227.117 100.118 215.717 116.874 215.016C120.668 214.857 123.166 215.297 125.436 216.481C128.655 218.16 129.94 220.565 134.025 226.2C136.259 229.282 138.731 232.185 140.993 235.247C154.232 253.175 159.251 254.583 158.738 260.331C158.169 266.708 151.296 272.758 146.728 272.059C144.857 271.773 144.132 270.472 141.633 267.836C134.304 260.11 131.272 261.537 126.055 255.619C119.963 248.71 120.761 242.981 117.583 242.76C114.635 242.554 113.383 247.442 107.091 253.934C104.212 256.905 102.161 258.268 95.9153 262.604C71.5914 279.49 71.2031 280.677 66.2943 282.024C64.1466 282.613 48.9032 286.795 43.473 280.14C34.9755 269.725 55.0503 238.337 64.8891 239.155Z" fill="#2F2E41"/>
<path d="M165.78 279.336C167.153 278.719 168.758 277.997 169.275 276.339C169.624 275.216 169.423 273.832 168.701 272.876C167.867 271.772 166.634 271.627 166.683 271.431C166.759 271.134 169.677 271.25 172.879 272.383C173.484 272.597 176.222 273.598 179.704 276.319C182.495 278.499 182.119 278.936 183.869 280.193C189.24 284.051 194.278 281.01 197.184 284.628C198.305 286.025 198.784 288.008 198.312 289.611C197.364 292.83 192.754 293.938 190.235 294.51C184.167 295.888 179.574 294.763 174.779 293.954C158.47 291.204 149.307 293.709 148.08 289.928C147.848 289.212 148.225 289.273 149.483 284.022C150.724 278.839 150.683 277.416 151.74 277.001C153.331 276.376 154.399 279.218 158.408 280.191C161.96 281.052 164.89 279.735 165.78 279.336Z" fill="#2F2E41"/>
<path d="M138.298 337.572L133.581 311.258L119.962 314.167L121.182 337.154L131.712 346.213L138.298 337.572Z" fill="#FFB6B6"/>
<path d="M70.2153 248C71.0679 248.689 73.5487 251.214 77.3177 251.567C79.8899 251.808 81.8903 250.927 82.5454 250.66C90.6725 247.344 112.518 248.402 126.776 257.237C130.005 259.238 131.825 261.005 133.039 263.261C134.76 266.459 134.474 269.171 134.692 276.128C134.811 279.934 135.228 283.726 135.38 287.531C136.275 309.804 139.638 313.789 135.988 318.257C131.938 323.214 122.856 324.358 119.468 321.213C118.081 319.925 118.212 318.441 117.623 314.856C115.894 304.345 112.585 303.822 111.588 295.994C110.425 286.853 114.3 282.561 111.794 280.592C109.471 278.766 105.692 282.106 96.8419 283.943C92.7924 284.783 90.3312 284.759 82.7296 284.837C53.127 285.141 52.1398 285.905 47.3223 284.261C45.2145 283.542 30.2546 278.437 29.496 269.878C28.3088 256.486 62.5331 241.795 70.2153 248Z" fill="#2F2E41"/>
<path d="M131.15 337.94C132.633 338.201 134.366 338.506 135.724 337.424C136.643 336.691 137.253 335.433 137.192 334.236C137.122 332.854 136.182 332.041 136.333 331.907C136.563 331.704 138.912 333.44 140.926 336.176C141.306 336.693 143.01 339.06 144.365 343.268C145.45 346.64 144.895 346.79 145.637 348.814C147.916 355.024 153.791 355.339 154.165 359.966C154.31 361.752 153.593 363.661 152.303 364.722C149.712 366.854 145.276 365.18 142.87 364.238C137.077 361.968 133.907 358.457 130.393 355.093C118.441 343.653 109.454 340.576 110.56 336.759C110.77 336.036 111.048 336.298 115.035 332.66C118.97 329.069 119.735 327.868 120.843 328.119C122.51 328.496 121.799 331.448 124.57 334.505C127.026 337.214 130.19 337.771 131.15 337.94Z" fill="#2F2E41"/>
<path d="M31.9928 156.613C32.6985 154.087 31.8121 153.166 32.7155 152.033C32.7156 152.033 33.0791 151.576 36.3293 150.345C35.3704 144.777 36.0884 143.836 36.0884 143.836C36.9159 142.751 38.5737 142.488 39.7022 142.63C42.089 142.93 42.5115 145.09 44.0388 145.041C46.1485 144.974 48.6789 140.748 47.8935 137.085C47.2528 134.098 44.4904 131.879 43.7979 132.264C43.1113 132.645 40.6396 130.962 39.7022 131.299C39.0621 131.53 36.0489 131.223 35.3657 131.54C34.6195 131.887 32.4828 134.044 32.2785 133.772C30.8588 131.883 30.8891 131.224 30.0654 130.817C28.606 130.096 27.0193 131.429 24.2834 132.746C18.6541 135.455 17.0058 133.839 14.4056 136.121C13.0922 137.274 12.3878 139.477 11.0328 143.836C9.1377 149.932 8.19018 152.98 9.1054 155.89C10.0388 158.858 11.4132 158.212 13.442 162.399C15.7002 167.06 14.9219 169.77 17.0558 170.837C18.7049 171.662 21.3553 171.137 22.356 169.632C24.0693 167.054 19.641 163.568 21.1514 159.506C22.0785 157.013 24.9386 155.122 26.6926 155.649C28.6757 156.244 28.8218 159.802 30.0654 159.747C31.1304 159.7 31.8698 157.053 31.9928 156.613Z" fill="#2F2E41"/>
<path d="M18.2604 173.971C21.9699 169.809 37.0795 174.117 38.4977 180.722C39.081 183.438 36.9276 184.585 37.534 187.713C38.421 192.288 43.4431 191.976 47.1708 196.633C52.4631 203.245 47.011 209.708 52.9529 220.742C54.2226 223.099 55.2927 225.086 57.5304 227.01C62.665 231.423 67.4437 229.909 70.0582 234.001C72.0134 237.061 71.21 240.832 71.0219 241.716C70.2503 245.338 68.1589 246.221 66.6853 249.189C64.2336 254.128 67.0095 257.754 67.1672 263.655C67.3644 271.037 63.4438 281.271 55.603 284.629C46.7943 288.401 36.1702 282.153 31.0292 275.95C27.9615 272.248 27.071 268.834 25.7289 264.619C19.731 245.783 16.3424 247.486 11.7556 232.555C6.51201 215.485 5.48119 195.488 11.7556 189.16C12.5872 188.321 14.8759 186.382 16.3331 182.891C18.2938 178.194 16.5999 175.834 18.2604 173.971Z" fill="#5BB55B"/>
<path d="M73.0717 270.858C75.9477 274.515 76.3935 278.964 74.0677 280.795C71.7419 282.626 67.5258 281.146 64.6493 277.488C63.4802 276.042 62.6741 274.338 62.2983 272.516L50.3081 256.869L56.5037 252.14L68.7943 267.402C70.4755 268.195 71.9423 269.381 73.0717 270.858Z" fill="#FFB6B6"/>
<path d="M29.1596 189.833C29.693 189.714 34.3612 188.745 38.0313 191.588C42.2471 194.853 42.0429 200.743 41.9713 202.809C41.8059 207.582 39.9369 208.36 38.825 213.042C36.7448 221.8 40.7063 229.94 42.895 234.437C43.6526 235.993 46.0865 240.756 50.9315 245.886C60.3542 255.862 68.7618 261.112 68.7618 261.112L59.7297 269.145C59.7297 269.145 45.3426 264.757 35.594 255.966C25.5942 246.947 10.2162 215.04 7.02825 207.267C6.75371 206.598 10.6425 217.48 18.0677 201.538C19.7614 197.902 22.8645 191.24 29.1596 189.833Z" fill="#5BB55B"/>
<path d="M260.327 182.349L249.542 177.237C253.966 183.414 257.777 193.061 259.817 200.738C263.272 193.587 268.841 184.837 274.354 179.611L262.957 182.545C269.98 148.101 296.396 123.374 326.645 123.374L327.074 122.13C295.477 122.13 267.497 146.514 260.327 182.349Z" fill="#3F3D56"/>
<path d="M309.962 234.83H241.823C238.933 234.83 236.582 232.477 236.582 229.585C236.582 226.693 238.933 224.34 241.823 224.34H309.962C312.852 224.34 315.203 226.693 315.203 229.585C315.203 232.477 312.852 234.83 309.962 234.83Z" fill="#5BB55B"/>
<path d="M400.628 234.83H332.49C329.6 234.83 327.249 232.477 327.249 229.585C327.249 226.693 329.6 224.34 332.49 224.34H400.628C403.518 224.34 405.87 226.693 405.87 229.585C405.87 232.477 403.518 234.83 400.628 234.83Z" fill="#E6E6E6"/>
<path d="M360.291 92.145H294.057C292.388 92.145 291.029 90.7853 291.029 89.1144C291.029 87.4435 292.388 86.0845 294.057 86.0845H360.291C361.961 86.0845 363.319 87.4435 363.319 89.1144C363.319 90.7853 361.961 92.145 360.291 92.145Z" fill="#3F3D56"/>
<path d="M395.833 124.476H258.516C256.846 124.476 255.487 123.116 255.487 121.445C255.487 119.774 256.846 118.415 258.516 118.415H395.833C397.503 118.415 398.861 119.774 398.861 121.445C398.861 123.116 397.503 124.476 395.833 124.476Z" fill="#3F3D56"/>
<path d="M29.7725 416.018C29.7725 416.563 30.2093 417 30.7534 417H461.247C461.791 417 462.228 416.563 462.228 416.018C462.228 415.474 461.791 415.037 461.247 415.037H30.7534C30.2093 415.037 29.7725 415.474 29.7725 416.018Z" fill="#3F3D56"/>
<path d="M135.48 183.351C135.363 183.351 135.247 183.347 135.129 183.339C128.231 182.896 104.628 179.554 90.5376 155.174C89.3764 153.167 89.6052 150.615 91.1065 148.824L117.202 117.711C118.269 116.439 119.918 115.706 121.587 115.726C122.741 115.754 125.473 116.045 126.004 118.153C129.139 130.605 142.376 145.245 158.296 147.186C159.909 147.382 161.205 148.823 161.761 151.039C162.194 152.764 161.794 154.543 160.66 155.919L139.756 181.321C138.694 182.611 137.135 183.351 135.48 183.351ZM121.487 116.978C120.212 116.978 118.972 117.549 118.161 118.516L92.0654 149.629C90.9009 151.018 90.7225 152.994 91.6206 154.547C105.401 178.389 128.468 181.656 135.21 182.09C136.587 182.182 137.909 181.595 138.79 180.525L159.695 155.123C160.572 154.057 160.883 152.68 160.547 151.344C160.219 150.036 159.415 148.584 158.144 148.428C141.698 146.424 128.026 131.311 124.79 118.459C124.528 117.418 122.95 117.011 121.561 116.978C121.537 116.978 121.512 116.978 121.487 116.978Z" fill="#3F3D56"/>
<path d="M106.352 156.198L125.165 137.002C126.451 135.69 124.437 133.671 123.149 134.984L104.335 154.18C103.049 155.492 105.064 157.512 106.352 156.198Z" fill="#E6E6E6"/>
<path d="M117.707 161.606C122.899 156.949 127.411 151.557 131.106 145.64C132.081 144.078 129.615 142.644 128.644 144.2C125.072 149.92 120.71 155.087 115.69 159.588C114.321 160.817 116.343 162.829 117.707 161.606Z" fill="#E6E6E6"/>
<path d="M127.941 168.082C132.669 162.842 136.693 156.993 139.861 150.684C140.683 149.048 138.224 147.601 137.398 149.244C134.337 155.339 130.493 161 125.925 166.064C124.698 167.424 126.708 169.448 127.941 168.082Z" fill="#E6E6E6"/>
</g>
<defs>
<clipPath id="clip0_228_6">
<rect width="492" height="417" fill="white"/>
</clipPath>
</defs>
</svg>
