<svg width="409" height="515" viewBox="0 0 409 515" fill="none" xmlns="http://www.w3.org/2000/svg">
<path d="M228.633 365.415H30.3251C13.6561 365.415 0.0952148 351.854 0.0952148 335.185V136.877C0.0952148 120.208 13.6561 106.647 30.3251 106.647H228.633C245.302 106.647 258.863 120.208 258.863 136.877V335.185C258.863 351.854 245.302 365.415 228.633 365.415ZM30.3251 111.484C16.3009 111.484 4.93199 122.853 4.93199 136.877V335.185C4.93199 349.209 16.3009 360.578 30.3251 360.578H169.235C216.064 360.578 254.026 322.616 254.026 275.787V136.877C254.026 122.853 242.657 111.484 228.633 111.484L30.3251 111.484Z" fill="#F2F2F2"/>
<path d="M51.7042 132.106C42.3185 132.106 34.6831 139.741 34.6831 149.127V175.769C34.6831 185.155 42.3185 192.79 51.7042 192.79H78.346C87.7317 192.79 95.3671 185.155 95.3671 175.769V149.127C95.3671 139.741 87.7317 132.106 78.346 132.106H51.7042Z" fill="#F2F2F2"/>
<path d="M51.7042 207.106C42.3185 207.106 34.6831 214.741 34.6831 224.127V250.769C34.6831 260.155 42.3185 267.79 51.7042 267.79H78.346C87.7317 267.79 95.3671 260.155 95.3671 250.769V224.127C95.3671 214.741 87.7317 207.106 78.346 207.106H51.7042Z" fill="#F2F2F2"/>
<path d="M51.7042 282.106C42.3185 282.106 34.6831 289.741 34.6831 299.127V325.769C34.6831 335.155 42.3185 342.79 51.7042 342.79H78.346C87.7317 342.79 95.3671 335.155 95.3671 325.769V299.127C95.3671 289.741 87.7317 282.106 78.346 282.106H51.7042Z" fill="#F2F2F2"/>
<path d="M69.3714 67.1061C57.5451 67.1061 47.9243 76.7269 47.9243 88.5532V122.123C47.9243 133.949 57.5451 143.57 69.3714 143.57H102.941C114.767 143.57 124.388 133.949 124.388 122.123V88.5532C124.388 76.7269 114.767 67.1061 102.941 67.1061H69.3714Z" fill="#D9D9D9"/>
<path d="M179.89 160.919C168.064 160.919 158.443 170.539 158.443 182.366V215.935C158.443 227.761 168.064 237.382 179.89 237.382H213.459C225.286 237.382 234.906 227.761 234.906 215.935V182.366C234.906 170.539 225.286 160.919 213.459 160.919H179.89Z" fill="#D9D9D9"/>
<path d="M131.842 498.808L125.022 498.75L122.003 471.833L132.069 471.917L131.842 498.808Z" fill="#A0616A"/>
<path d="M109.998 509.652C109.983 511.331 111.336 512.713 113.021 512.728L126.58 512.841L128.953 508.03L129.825 512.866L134.941 512.912L133.649 495.664L131.87 495.545L124.609 495.045L122.267 494.888L122.226 499.768L111.334 507.156C110.505 507.719 110.006 508.651 109.998 509.652Z" fill="#2F2E41"/>
<path d="M166.54 498.808L159.72 498.75L156.701 471.833L166.766 471.917L166.54 498.808Z" fill="#A0616A"/>
<path d="M144.695 509.652C144.681 511.331 146.034 512.713 147.718 512.728L161.277 512.841L163.651 508.03L164.523 512.866L169.639 512.912L168.347 495.664L166.567 495.545L159.307 495.045L156.965 494.888L156.924 499.768L146.031 507.156C145.203 507.719 144.704 508.651 144.695 509.652Z" fill="#2F2E41"/>
<path d="M105.081 281.178L132.724 282.051L158.913 287.871C158.913 287.871 156.294 291.072 165.024 299.801C165.024 299.801 176.663 320.17 168.516 339.957L165.024 419.105C165.024 419.105 175.205 474.898 167.426 492.656L157.145 493.298L139.749 419.748L131.27 340.539L127.196 418.523C127.196 418.523 142.781 472.049 132.939 493.298L121.805 492.656L102.753 418.523C102.753 418.523 94.6056 332.973 95.7696 316.678C96.9335 300.383 105.081 281.178 105.081 281.178Z" fill="#2F2E41"/>
<path d="M197.914 156.113C194.135 157.091 191.865 160.948 192.843 164.727C193.291 166.458 194.348 167.867 195.721 168.798L195.72 168.807L195.184 181.792L205.121 186.391L205.914 166.409L205.845 166.411C206.706 164.876 207.004 163.022 206.528 161.183C205.549 157.404 201.693 155.134 197.914 156.113Z" fill="#A0616A"/>
<path d="M142.378 202.455C140.29 200.386 139.079 197.58 139.034 194.53C138.973 190.438 141.024 186.723 144.52 184.595C148.545 182.143 153.579 182.391 157.345 185.226L188.547 208.719L194.107 174.875L206.044 178.718L203.196 222.788C202.997 225.87 201.255 228.586 198.535 230.052C195.816 231.518 192.59 231.481 189.905 229.954L144.812 204.299C143.907 203.783 143.091 203.162 142.378 202.455Z" fill="#3F3D56"/>
<path d="M94.799 137.182C96.7937 140.537 95.6906 144.874 92.3352 146.869C90.7977 147.783 89.0556 148.04 87.4256 147.734L87.4191 147.741L78.6578 157.34L68.3638 153.609L81.8685 138.861L81.9162 138.912C82.385 137.215 83.4792 135.688 85.1117 134.718C88.4672 132.723 92.8043 133.826 94.799 137.182Z" fill="#A0616A"/>
<path d="M98.5834 208.787L48.4982 195.258C45.5161 194.453 43.1994 192.207 42.3005 189.252C41.4016 186.296 42.0765 183.141 44.1052 180.812L73.1103 147.51L84.2925 153.186L64.4127 181.135L103.112 186.419C107.782 187.057 111.531 190.425 112.664 195.001C113.648 198.974 112.489 203.055 109.564 205.918C107.385 208.053 104.55 209.192 101.61 209.192C100.606 209.192 99.5895 209.059 98.5834 208.787Z" fill="#3F3D56"/>
<path d="M169.989 292.822L99.9505 296.035C98.0269 293.114 98.5479 288.721 101.242 283.221C111.413 262.454 103.688 223.167 98.4919 202.71C97.0339 196.97 100.948 191.264 106.84 190.674L113.444 190.014L119.548 171.38H140.927L149.796 181.513L164.848 190.657C162.109 218.877 150.435 258.727 167.065 278.712C170.703 283.082 171.734 287.809 169.989 292.822Z" fill="#3F3D56"/>
<path d="M127.518 171.81C139.019 171.81 148.342 162.487 148.342 150.987C148.342 139.486 139.019 130.163 127.518 130.163C116.018 130.163 106.695 139.486 106.695 150.987C106.695 162.487 116.018 171.81 127.518 171.81Z" fill="#A0616A"/>
<path d="M151.082 137.658C153.979 127.095 122.403 118.037 116.266 126.543C115.413 125.334 112.26 124.599 110.813 124.97C109.366 125.341 108.15 126.269 106.962 127.166C105.33 128.42 103.638 129.719 102.637 131.522C101.628 133.317 101.472 135.766 102.83 137.324C103.906 138.563 105.796 145.147 107.414 145.473C108.541 145.703 109.491 145.889 110.307 146.023C111.034 144.962 112.888 143.629 112.755 142.345C113.853 143.072 113.452 144.352 113.23 145.659C112.493 150.013 95.8841 183.714 105.397 173.783C106.339 174.34 107.504 174.859 108.847 175.334C111.125 171.899 112.994 167.848 114.226 163.611L114.235 163.689C114.659 167.371 117.349 170.392 120.909 171.423C135.189 175.56 146.739 169.49 150.712 158.543C149.258 155.59 148.624 155.911 148.754 155.823C150.57 154.599 153.066 155.4 153.846 157.446C154.076 158.049 154.285 158.564 154.467 158.951C156.537 151.547 158.999 152.615 151.082 137.658Z" fill="#2F2E41"/>
<path d="M141.231 129.994L139.772 122.537C139.65 121.91 139.533 121.23 139.816 120.657C140.179 119.921 141.113 119.616 141.925 119.734C142.737 119.851 143.345 120.593 144.153 120.736C146.963 121.232 150.677 118.457 151.683 125.478C152.103 128.405 156.774 128.715 158.334 131.227C159.894 133.739 160.086 137.366 157.957 139.418C156.256 141.057 153.526 141.246 151.317 140.409C149.109 139.572 147.337 137.88 145.789 136.097C144.24 134.313 142.839 132.383 141.053 130.837" fill="#2F2E41"/>
<path d="M152.194 141.336C146.496 140.54 142.612 138.468 140.651 135.177C138.083 130.87 139.803 126.127 139.877 125.927L141.082 126.375C141.066 126.418 139.505 130.76 141.761 134.53C143.516 137.463 147.086 139.325 152.372 140.063L152.194 141.336Z" fill="#6C63FF"/>
<path d="M178.934 60.7623C162.183 60.7623 148.553 47.1323 148.553 30.3812C148.553 13.63 162.183 0 178.934 0C195.685 0 209.315 13.63 209.315 30.3812C209.315 47.1323 195.685 60.7623 178.934 60.7623ZM178.934 12.1525C168.882 12.1525 160.705 20.3293 160.705 30.3812C160.705 40.4331 168.882 48.6099 178.934 48.6099C188.986 48.6099 197.163 40.4331 197.163 30.3812C197.163 20.3293 188.986 12.1525 178.934 12.1525Z" fill="#D9D9D9"/>
<path d="M225.677 81.409C224.188 81.409 222.696 80.8661 221.524 79.7654L193.009 53.0424C190.558 50.749 190.433 46.9039 192.73 44.4562C195.02 41.9996 198.865 41.8779 201.316 44.1773L229.831 70.9002C232.282 73.1937 232.406 77.0388 230.11 79.4865C228.914 80.7652 227.297 81.409 225.677 81.409Z" fill="#D9D9D9"/>
<path d="M354.551 498.126C356.617 498.255 357.759 495.689 356.196 494.193L356.041 493.574C356.061 493.525 356.082 493.475 356.102 493.426C358.192 488.444 365.272 488.479 367.344 493.468C369.182 497.896 371.523 502.332 372.1 507.014C372.358 509.081 372.242 511.186 371.783 513.214C376.091 503.804 378.358 493.528 378.358 483.193C378.358 480.597 378.216 478 377.925 475.41C377.686 473.292 377.357 471.186 376.931 469.1C374.625 457.823 369.632 447.082 362.431 438.111C358.969 436.218 356.082 433.26 354.338 429.714C353.711 428.435 353.22 427.059 352.988 425.658C353.382 425.709 354.473 419.709 354.176 419.341C354.725 418.508 355.708 418.094 356.308 417.281C359.29 413.237 363.399 413.943 365.544 419.438C370.126 421.751 370.17 425.586 367.359 429.275C365.57 431.622 365.324 434.797 363.755 437.31C363.916 437.516 364.084 437.716 364.246 437.923C367.207 441.721 369.768 445.803 371.927 450.092C371.316 445.326 372.217 439.584 373.753 435.882C375.501 431.665 378.778 428.113 381.664 424.467C385.13 420.088 392.237 421.999 392.848 427.551C392.853 427.604 392.859 427.658 392.865 427.712C392.436 427.953 392.016 428.21 391.606 428.482C389.267 430.029 390.075 433.655 392.847 434.083L392.91 434.093C392.755 435.637 392.49 437.167 392.103 438.672C395.804 452.988 387.813 458.202 376.401 458.437C376.149 458.566 375.904 458.695 375.652 458.818C376.808 462.073 377.732 465.412 378.416 468.797C379.03 471.787 379.456 474.81 379.695 477.845C379.992 481.675 379.966 485.525 379.643 489.349L379.663 489.213C380.483 485.002 382.77 481.068 386.089 478.343C391.035 474.28 398.022 472.784 403.358 469.518C405.926 467.947 409.217 469.978 408.769 472.956L408.747 473.098C407.953 473.421 407.178 473.796 406.428 474.216C406 474.457 405.58 474.714 405.17 474.985C402.83 476.533 403.639 480.159 406.411 480.587L406.474 480.597C406.519 480.603 406.558 480.61 406.603 480.616C405.24 483.852 403.341 486.856 400.964 489.446C398.65 501.943 388.708 503.128 378.074 499.489H378.068C376.905 504.553 375.206 509.5 373.023 514.215H355.003C354.938 514.015 354.88 513.808 354.822 513.608C356.488 513.712 358.168 513.615 359.808 513.311C358.471 511.67 357.134 510.017 355.797 508.376C355.765 508.344 355.739 508.312 355.713 508.28C355.035 507.44 354.351 506.607 353.672 505.767L353.672 505.766C353.63 503.189 353.939 500.619 354.551 498.126Z" fill="#F2F2F2"/>
</svg>
